<?xml version="1.0" standalone="no"?>
<!DOCTYPE svg PUBLIC "-//W3C//DTD SVG 20010904//EN"
 "http://www.w3.org/TR/2001/REC-SVG-20010904/DTD/svg10.dtd">
<svg version="1.0" xmlns="http://www.w3.org/2000/svg"
 width="719.000000pt" height="719.000000pt" viewBox="0 0 719.000000 719.000000"
 preserveAspectRatio="xMidYMid meet">
<metadata>
Created by potrace 1.15, written by Peter Selinger 2001-2017
</metadata>
<g transform="translate(0.000000,719.000000) scale(0.100000,-0.100000)"
fill="#000000" stroke="none">
<path d="M1778 5485 c-4 -4 -4 -13 -1 -21 3 -8 -1 -14 -8 -14 -9 0 -10 -3 -4
-8 11 -8 15 -422 4 -422 -3 0 -2 -19 4 -42 9 -41 13 -45 83 -78 41 -19 74 -38
74 -42 0 -3 14 -9 30 -13 18 -4 27 -11 24 -17 -4 -6 -2 -8 4 -4 6 3 32 -6 59
-22 26 -16 98 -55 160 -87 61 -32 109 -63 106 -69 -3 -5 -1 -6 5 -2 6 4 25 0
42 -9 16 -8 31 -14 33 -13 2 2 11 -5 21 -14 10 -10 24 -18 32 -18 8 0 12 -5 9
-11 -4 -6 -1 -10 6 -8 27 3 40 -1 34 -11 -3 -5 1 -10 9 -10 14 0 77 -32 221
-112 28 -15 57 -30 65 -34 8 -3 22 -10 30 -15 8 -5 47 -24 85 -43 43 -21 76
-44 84 -60 11 -20 13 -86 9 -330 -3 -216 -2 -306 6 -306 8 0 11 99 11 327 l0
328 -27 17 c-15 9 -80 45 -145 79 -65 34 -165 88 -223 119 -58 31 -152 80
-210 109 -58 30 -109 57 -115 61 -5 4 -62 35 -125 68 -63 33 -171 90 -240 126
-68 36 -128 66 -132 66 -4 0 -9 122 -10 271 -2 149 -6 268 -10 264z"/>
<path d="M1971 4502 l-1 -162 25 -12 c13 -6 22 -15 18 -21 -3 -5 3 -6 16 -2
12 3 21 2 21 -4 0 -5 17 -15 38 -21 20 -7 42 -19 49 -27 6 -8 16 -12 21 -9 5
3 15 -1 22 -9 7 -8 21 -15 31 -15 11 0 19 -5 19 -12 0 -6 2 -9 6 -6 6 7 370
-177 398 -201 11 -9 16 -10 12 -4 -5 9 -2 11 8 7 9 -3 13 -10 10 -15 -3 -5 5
-9 18 -9 13 0 32 -7 42 -15 22 -16 51 -20 42 -6 -3 5 -179 95 -391 201 l-385
192 -1 136 c0 76 -4 146 -9 157 -5 12 -9 -43 -9 -143z"/>
<path d="M4769 4633 c-6 -94 5 -1241 11 -1247 7 -7 10 221 10 616 0 407 -4
629 -10 633 -5 3 -10 3 -11 -2z"/>
<path d="M1782 4267 c-1 -11 -7 -15 -14 -11 -7 5 -8 3 -4 -5 10 -15 8 -534 -1
-558 -4 -11 -3 -14 5 -9 7 4 12 2 12 -6 0 -7 33 -29 74 -48 41 -19 71 -39 68
-44 -3 -5 0 -6 5 -3 6 4 42 -10 79 -31 38 -21 106 -55 151 -77 45 -21 80 -42
78 -45 -2 -4 2 -7 9 -7 14 0 147 -62 156 -73 3 -3 30 -16 60 -29 30 -13 60
-28 65 -34 6 -7 15 -12 20 -12 15 -1 139 -66 146 -78 4 -5 11 -7 17 -3 5 3 20
-2 33 -12 13 -10 40 -25 59 -32 19 -8 51 -23 70 -34 19 -11 68 -36 107 -56 40
-20 70 -40 65 -45 -4 -5 -2 -5 5 -1 15 8 82 -25 83 -41 0 -6 9 -9 23 -6 18 4
20 3 7 -7 -13 -10 -13 -11 2 -6 14 4 186 -74 223 -101 34 -25 165 -83 186 -82
20 1 21 2 4 6 -11 3 -24 9 -30 13 -12 9 -280 147 -830 425 -214 109 -509 258
-655 332 l-265 135 -5 302 c-3 165 -6 293 -8 283z"/>
</g>
</svg>
